<svg width="24" height="24" viewBox="0 0 24 24" fill="none" xmlns="http://www.w3.org/2000/svg">
<path d="M19.1001 14.6749L17.6001 13.1665V9.44987C17.6201 8.06972 17.14 6.72896 16.2486 5.67515C15.3571 4.62134 14.1145 3.92565 12.7501 3.71654C11.9583 3.61226 11.1534 3.67805 10.389 3.90952C9.6246 4.14098 8.91837 4.53281 8.31741 5.05884C7.71646 5.58487 7.2346 6.23302 6.90398 6.96003C6.57337 7.68705 6.4016 8.47621 6.40014 9.27487V13.1665L4.90014 14.6749C4.71173 14.8664 4.58396 15.1093 4.53281 15.373C4.48166 15.6368 4.50939 15.9098 4.61254 16.1579C4.71569 16.406 4.88968 16.6182 5.11277 16.7679C5.33585 16.9177 5.59813 16.9984 5.86681 16.9999H8.66681V17.2832C8.70573 18.1292 9.07844 18.9253 9.70325 19.497C10.3281 20.0687 11.154 20.3694 12.0001 20.3332C12.8463 20.3694 13.6722 20.0687 14.297 19.497C14.9218 18.9253 15.2946 18.1292 15.3335 17.2832V16.9999H18.1335C18.4022 16.9984 18.6644 16.9177 18.8875 16.7679C19.1106 16.6182 19.2846 16.406 19.3877 16.1579C19.4909 15.9098 19.5186 15.6368 19.4675 15.373C19.4163 15.1093 19.2886 14.8664 19.1001 14.6749ZM13.6668 17.2832C13.6206 17.684 13.4215 18.0516 13.111 18.3093C12.8006 18.567 12.4026 18.6949 12.0001 18.6665C11.5977 18.6949 11.1997 18.567 10.8892 18.3093C10.5788 18.0516 10.3797 17.684 10.3335 17.2832V16.9999H13.6668V17.2832ZM6.59181 15.3332L7.57514 14.3499C7.73112 14.1948 7.85486 14.0104 7.93924 13.8073C8.02363 13.6043 8.06698 13.3865 8.06681 13.1665V9.27487C8.06726 8.71271 8.18796 8.15714 8.4208 7.64546C8.65365 7.13378 8.99325 6.67783 9.41681 6.3082C9.83466 5.92961 10.3298 5.64633 10.8679 5.47798C11.4061 5.30963 11.9744 5.26023 12.5335 5.3332C13.4972 5.48968 14.372 5.98905 14.9967 6.73935C15.6215 7.48966 15.9541 8.4404 15.9335 9.41654V13.1665C15.9322 13.3859 15.9742 13.6033 16.0572 13.8064C16.1401 14.0094 16.2623 14.1941 16.4168 14.3499L17.4085 15.3332H6.59181Z" fill="white"/>
</svg>
