<svg width="25" height="25" viewBox="0 0 25 25" fill="none" xmlns="http://www.w3.org/2000/svg">
<path d="M13.1723 14.456L11.2095 12.448L11.2327 12.424C12.5773 10.872 13.5355 9.088 14.0995 7.2H16.3636V5.6H10.9545V4H9.40909V5.6H4V7.192H12.6314C12.1136 8.736 11.2945 10.2 10.1818 11.48C9.46318 10.656 8.86818 9.752 8.39682 8.8H6.85136C7.41545 10.104 8.18818 11.336 9.15409 12.448L5.22091 16.464L6.31818 17.6L10.1818 13.6L12.585 16.088L13.1723 14.456ZM17.5227 10.4H15.9773L12.5 20H14.0455L14.9109 17.6H18.5814L19.4545 20H21L17.5227 10.4ZM15.4982 16L16.75 12.536L18.0018 16H15.4982Z" fill="white"/>
</svg>
